<svg xmlns="http://www.w3.org/2000/svg" viewBox="0 0 924 737" role="img" aria-label="I/C Research, Intelligence per Compute"><title>I/C Research, Intelligence per Compute</title><g fill="#15201f"><path d="M12.7 476Q8.5 476 4.2 473.2Q0 470.4 0 465.4Q0 453.4 13.4 449.9Q40.2 444.3 50.1 435.8Q59.9 427.3 59.9 405.5L59.9 85.3Q59.9 62.8 50.8 53.6Q41.6 44.4 13.4 38.1Q0 34.6 0 22.6Q0 17.6 4.2 14.8Q8.5 12 12.7 12Q28.2 12 47.6 12.7Q67 13.4 85.7 14.5Q104.4 15.5 118.5 15.5Q132.6 15.5 152.3 14.8Q172.1 14.1 192.5 13.4Q213 12.7 227.8 12.7Q233.4 12.7 236.2 15.2Q239.1 17.6 239.1 23.3Q239.1 30.3 235.5 33.2Q232 36 225.7 38.1Q196.7 46.6 188.3 55.7Q179.8 64.9 179.8 86L179.8 404.8Q179.8 424.5 189 433.3Q198.2 442.2 225.7 449.9Q232 452 235.5 454.8Q239.1 457.7 239.1 464.7Q239.1 469.7 236.2 472.5Q233.4 475.3 227.8 475.3Q213 475.3 192.5 474.6Q172.1 473.9 152.3 473.2Q132.6 472.5 118.5 472.5Q104.4 472.5 85.7 473.2Q67 473.9 47.6 474.9Q28.2 476 12.7 476Z"/><path d="M738.1 494Q680.6 494 630.3 476.9Q580 459.8 542.1 428.1Q504.3 396.4 483.1 352.3Q462 308.2 462 254.3Q462 204.7 481.7 159.2Q501.3 113.7 539.6 78Q577.8 42.3 633.2 21.1Q688.6 0 759.3 0Q781.9 0 806.3 3.6Q830.7 7.3 853.6 13.1Q876.6 18.9 893.3 26.2Q899.2 29.1 903.9 33.5Q908.6 37.9 909.4 45.9Q913 72.1 914.1 95.1Q915.2 118 915.2 134.1Q915.2 142.8 909 145.7Q902.8 148.6 895.9 145.7Q889 142.8 886.1 134.1Q881 119.5 874.8 103.5Q868.6 87.4 856.2 75.8Q841.6 60.5 816.1 50.3Q790.6 40.1 752.7 40.1Q716.3 40.1 687.1 55.7Q658 71.4 637.6 98.7Q617.2 126.1 606.3 160.7Q595.3 195.3 595.3 233.2Q595.3 282 604.8 322.4Q614.3 362.8 634 392Q653.6 421.1 683.1 436.8Q712.6 452.5 752.7 452.5Q807.4 452.5 840.5 429.9Q873.7 407.3 896.3 358.5Q902.1 345.4 913 346.1Q923.9 346.8 923.9 358.5Q923.9 368.7 922.1 382.2Q920.3 395.6 917 411.3Q913.7 427 908.6 444.5Q906.5 452.5 901.4 457.6Q896.3 462.7 889.7 466.3Q862 478.7 824.1 486.3Q786.2 494 738.1 494Z"/><path d="M11.6 650L0 650L0 569L31.6 569Q47.3 569 56.4 576.5Q65.4 583.9 65.4 597.2Q65.4 606 61.3 612.3Q57.3 618.6 49.8 622Q48.7 622.5 47.6 622.9L66.8 650L54.2 650L36.7 625.1Q34.3 625.4 31.6 625.4L11.6 625.4L11.6 650ZM11.6 579.1L11.6 615.5L31.2 615.5Q42.4 615.5 48.1 610.7Q53.8 605.9 53.8 597.2Q53.8 588.6 48.1 583.8Q42.4 579.1 31.2 579.1L11.6 579.1ZM184.6 650L125.8 650L125.8 569L183 569L183 579.1L137.4 579.1L137.4 603.9L178 603.9L178 613.8L137.4 613.8L137.4 639.9L184.6 639.9L184.6 650ZM268.7 650.9Q259.4 650.9 251 648.1Q242.5 645.3 237.7 640.7L241.9 631.7Q246.6 635.8 253.8 638.4Q260.9 641.1 268.7 641.1Q275.7 641.1 280.1 639.5Q284.5 637.9 286.6 635Q288.7 632.2 288.7 628.6Q288.7 624.4 286 621.9Q283.3 619.3 278.9 617.8Q274.6 616.2 269.4 615.1Q264.2 613.9 258.9 612.3Q253.6 610.8 249.3 608.3Q245 605.9 242.3 601.8Q239.6 597.7 239.6 591.2Q239.6 585 242.9 579.7Q246.2 574.4 253.1 571.3Q260 568.1 270.6 568.1Q277.7 568.1 284.6 569.9Q291.6 571.8 296.7 575.2L292.9 584.5Q287.7 581 281.9 579.5Q276.1 577.9 270.6 577.9Q263.8 577.9 259.4 579.6Q255 581.4 253 584.3Q251 587.2 251 590.8Q251 595 253.7 597.6Q256.4 600.1 260.8 601.6Q265.1 603.1 270.3 604.4Q275.5 605.6 280.8 607.1Q286 608.6 290.4 611Q294.7 613.4 297.4 617.5Q300 621.5 300 627.9Q300 634 296.7 639.3Q293.3 644.6 286.3 647.7Q279.3 650.9 268.7 650.9ZM417.4 650L358.6 650L358.6 569L415.8 569L415.8 579.1L370.2 579.1L370.2 603.9L410.8 603.9L410.8 613.8L370.2 613.8L370.2 639.9L417.4 639.9L417.4 650ZM477.5 650L465.6 650L502.3 569L513.8 569L550.5 650L538.4 650L529.5 629.8L486.4 629.8L477.5 650ZM490.5 620.5L525.4 620.5L508 580.8L490.5 620.5ZM615.9 650L604.3 650L604.3 569L635.9 569Q651.6 569 660.6 576.5Q669.7 583.9 669.7 597.2Q669.7 606 665.6 612.3Q661.6 618.6 654 622Q653 622.5 651.9 622.9L671.1 650L658.4 650L641 625.1Q638.5 625.4 635.9 625.4L615.9 625.4L615.9 650ZM615.9 579.1L615.9 615.5L635.5 615.5Q646.6 615.5 652.4 610.7Q658.1 605.9 658.1 597.2Q658.1 588.6 652.4 583.8Q646.6 579.1 635.5 579.1L615.9 579.1ZM766.3 650.9Q757.1 650.9 749.3 647.9Q741.5 644.8 735.7 639.2Q730 633.6 726.8 626Q723.5 618.5 723.5 609.5Q723.5 600.5 726.8 593Q730 585.4 735.8 579.8Q741.6 574.2 749.4 571.1Q757.2 568.1 766.5 568.1Q775.8 568.1 783.8 571.3Q791.7 574.4 797.2 580.7L789.7 588Q785.1 583.1 779.3 580.7Q773.5 578.4 766.9 578.4Q760.1 578.4 754.3 580.7Q748.4 583 744.1 587.2Q739.8 591.3 737.5 597.1Q735.1 602.8 735.1 609.5Q735.1 616.2 737.5 621.9Q739.8 627.7 744.1 631.8Q748.4 636 754.3 638.3Q760.1 640.6 766.9 640.6Q773.5 640.6 779.3 638.3Q785.1 635.9 789.7 630.9L797.2 638.2Q791.7 644.4 783.8 647.7Q775.8 650.9 766.3 650.9ZM924 650L912.4 650L912.4 613.9L865.9 613.9L865.9 650L854.3 650L854.3 569L865.9 569L865.9 603.8L912.4 603.8L912.4 569L924 569L924 650Z"/><path d="M3.4 736L0 736L0 704L3.4 704L3.4 736ZM27.2 736L23.8 736L23.8 704L26.6 704L47.2 730L47.2 704L50.5 704L50.5 736L47.7 736L27.2 710L27.2 736ZM80.5 736L77.2 736L77.2 706.9L65.9 706.9L65.9 704L91.8 704L91.8 706.9L80.5 706.9L80.5 736ZM129.8 736L107.2 736L107.2 704L129.1 704L129.1 706.9L110.6 706.9L110.6 718.3L127.1 718.3L127.1 721.2L110.6 721.2L110.6 733.1L129.8 733.1L129.8 736ZM169.1 736L147.7 736L147.7 704L151.1 704L151.1 733.1L169.1 733.1L169.1 736ZM206 736L184.7 736L184.7 704L188 704L188 733.1L206 733.1L206 736ZM225 736L221.6 736L221.6 704L225 704L225 736ZM259.4 736.3Q255.7 736.3 252.7 735.1Q249.6 733.9 247.3 731.7Q245.1 729.5 243.8 726.5Q242.5 723.5 242.5 720Q242.5 716.5 243.8 713.5Q245.1 710.5 247.3 708.3Q249.6 706.1 252.7 704.9Q255.8 703.7 259.5 703.7Q263.1 703.7 266.1 704.9Q269.2 706 271.3 708.3L269.2 710.5Q267.2 708.5 264.8 707.6Q262.4 706.7 259.6 706.7Q256.6 706.7 254.1 707.7Q251.6 708.7 249.8 710.5Q247.9 712.3 246.9 714.7Q245.9 717.1 245.9 720Q245.9 722.8 246.9 725.3Q247.9 727.7 249.8 729.5Q251.6 731.3 254.1 732.3Q256.6 733.3 259.5 733.3Q262.3 733.3 264.8 732.4Q266.4 731.9 267.9 730.7L267.9 720L271.2 720L271.2 732.2Q268.9 734.2 265.8 735.2Q262.7 736.3 259.4 736.3ZM313.3 736L290.7 736L290.7 704L312.6 704L312.6 706.9L294.1 706.9L294.1 718.3L310.6 718.3L310.6 721.2L294.1 721.2L294.1 733.1L313.3 733.1L313.3 736ZM334.7 736L331.3 736L331.3 704L334.1 704L354.7 730L354.7 704L358 704L358 736L355.2 736L334.7 710L334.7 736ZM392.3 736.3Q388.7 736.3 385.6 735.1Q382.6 733.9 380.3 731.7Q378.1 729.5 376.8 726.5Q375.6 723.5 375.6 720Q375.6 716.5 376.8 713.5Q378.1 710.5 380.4 708.3Q382.6 706.1 385.7 704.9Q388.8 703.7 392.4 703.7Q395.8 703.7 398.9 704.9Q402 706.1 404.1 708.4L401.9 710.5Q400 708.5 397.6 707.6Q395.2 706.7 392.5 706.7Q389.6 706.7 387.1 707.7Q384.6 708.7 382.8 710.5Q381 712.3 380 714.7Q378.9 717.1 378.9 720Q378.9 722.9 380 725.3Q381 727.7 382.8 729.5Q384.6 731.3 387.1 732.3Q389.6 733.3 392.5 733.3Q395.2 733.3 397.6 732.3Q400 731.4 401.9 729.4L404.1 731.6Q402 733.9 398.9 735.1Q395.8 736.3 392.3 736.3ZM443.5 736L420.8 736L420.8 704L442.8 704L442.8 706.9L424.2 706.9L424.2 718.3L440.8 718.3L440.8 721.2L424.2 721.2L424.2 733.1L443.5 733.1L443.5 736ZM486.7 736L483.4 736L483.4 704L495.3 704Q499.4 704 502.3 705.3Q505.3 706.6 506.8 709.1Q508.4 711.5 508.4 715Q508.4 718.4 506.8 720.8Q505.3 723.2 502.3 724.6Q499.4 725.9 495.3 725.9L486.7 725.9L486.7 736ZM486.7 706.9L486.7 722.9L495.2 722.9Q500 722.9 502.5 720.8Q505 718.8 505 715Q505 711.1 502.5 709Q500 706.9 495.2 706.9L486.7 706.9ZM548.8 736L526.2 736L526.2 704L548.1 704L548.1 706.9L529.6 706.9L529.6 718.3L546.1 718.3L546.1 721.2L529.6 721.2L529.6 733.1L548.8 733.1L548.8 736ZM570.1 736L566.7 736L566.7 704L578.7 704Q584.8 704 588.3 706.9Q591.8 709.8 591.8 715Q591.8 718.4 590.2 720.8Q588.6 723.2 585.7 724.5Q585.1 724.8 584.5 725L592.3 736L588.6 736L581.3 725.7Q580.1 725.9 578.7 725.9L570.1 725.9L570.1 736ZM570.1 706.9L570.1 723L578.6 723Q583.4 723 585.9 720.9Q588.4 718.8 588.4 715Q588.4 711.1 585.9 709Q583.4 706.9 578.6 706.9L570.1 706.9ZM645.6 736.3Q642 736.3 639 735.1Q635.9 733.9 633.7 731.7Q631.4 729.5 630.2 726.5Q628.9 723.5 628.9 720Q628.9 716.5 630.2 713.5Q631.4 710.5 633.7 708.3Q636 706.1 639 704.9Q642.1 703.7 645.7 703.7Q649.2 703.7 652.2 704.9Q655.3 706.1 657.4 708.4L655.2 710.5Q653.3 708.5 650.9 707.6Q648.5 706.7 645.8 706.7Q642.9 706.7 640.4 707.7Q638 708.7 636.1 710.5Q634.3 712.3 633.3 714.7Q632.3 717.1 632.3 720Q632.3 722.9 633.3 725.3Q634.3 727.7 636.1 729.5Q638 731.3 640.4 732.3Q642.9 733.3 645.8 733.3Q648.5 733.3 650.9 732.3Q653.3 731.4 655.2 729.4L657.4 731.6Q655.3 733.9 652.2 735.1Q649.2 736.3 645.6 736.3ZM688.1 736.3Q684.5 736.3 681.4 735.1Q678.4 733.9 676.1 731.6Q673.8 729.4 672.6 726.5Q671.3 723.5 671.3 720Q671.3 716.5 672.6 713.5Q673.8 710.6 676.1 708.4Q678.4 706.1 681.4 704.9Q684.5 703.7 688.1 703.7Q691.7 703.7 694.8 704.9Q697.9 706.1 700.1 708.3Q702.4 710.5 703.7 713.5Q704.9 716.5 704.9 720Q704.9 723.5 703.7 726.5Q702.4 729.5 700.1 731.7Q697.9 733.9 694.8 735.1Q691.7 736.3 688.1 736.3ZM688.1 733.3Q691 733.3 693.5 732.3Q695.9 731.3 697.7 729.5Q699.5 727.7 700.5 725.3Q701.5 722.9 701.5 720Q701.5 717.1 700.5 714.7Q699.5 712.3 697.7 710.5Q695.9 708.7 693.5 707.7Q691 706.7 688.1 706.7Q685.3 706.7 682.8 707.7Q680.3 708.7 678.5 710.5Q676.7 712.3 675.7 714.7Q674.7 717.1 674.7 720Q674.7 722.8 675.7 725.3Q676.7 727.7 678.5 729.5Q680.3 731.3 682.8 732.3Q685.3 733.3 688.1 733.3ZM725.7 736L722.5 736L722.5 704L725.3 704L739.2 727.7L752.9 704L755.7 704L755.7 736L752.5 736L752.5 710.4L739.9 731.9L738.3 731.9L725.7 710.5L725.7 736ZM779.5 736L776.1 736L776.1 704L788.1 704Q792.2 704 795.1 705.3Q798 706.6 799.6 709.1Q801.2 711.5 801.2 715Q801.2 718.4 799.6 720.8Q798 723.2 795.1 724.6Q792.2 725.9 788.1 725.9L779.5 725.9L779.5 736ZM779.5 706.9L779.5 722.9L788 722.9Q792.8 722.9 795.3 720.8Q797.8 718.8 797.8 715Q797.8 711.1 795.3 709Q792.8 706.9 788 706.9L779.5 706.9ZM831.8 736.3Q825.7 736.3 822.2 732.8Q818.7 729.2 818.7 722.3L818.7 704L822.1 704L822.1 722.2Q822.1 727.9 824.6 730.6Q827.2 733.3 831.8 733.3Q836.5 733.3 839.1 730.6Q841.7 727.9 841.7 722.2L841.7 704L845 704L845 722.3Q845 729.2 841.5 732.8Q838 736.3 831.8 736.3ZM874.7 736L871.4 736L871.4 706.9L860.1 706.9L860.1 704L886 704L886 706.9L874.7 706.9L874.7 736ZM924 736L901.4 736L901.4 704L923.3 704L923.3 706.9L904.8 706.9L904.8 718.3L921.3 718.3L921.3 721.2L904.8 721.2L904.8 733.1L924 733.1L924 736Z"/></g><path fill="#bc751b" d="M248 475H298L505 6H453Z"/></svg>
